<?xml version="1.0" standalone="no"?>
<!DOCTYPE svg PUBLIC "-//W3C//DTD SVG 20010904//EN"
 "http://www.w3.org/TR/2001/REC-SVG-20010904/DTD/svg10.dtd">
<svg version="1.0" xmlns="http://www.w3.org/2000/svg"
 width="512.000000pt" height="512.000000pt" viewBox="0 0 512.000000 512.000000"
 preserveAspectRatio="xMidYMid meet">
<metadata>
Created by potrace 1.11, written by Peter Selinger 2001-2013
</metadata>
<g transform="translate(0.000000,512.000000) scale(0.100000,-0.100000)"
fill="#000000" stroke="none">
<path d="M2355 5114 c-349 -37 -608 -107 -890 -238 -520 -243 -978 -701 -1221
-1221 -111 -238 -180 -471 -220 -740 -25 -168 -25 -542 0 -710 119 -802 572
-1468 1276 -1875 259 -151 575 -257 905 -306 168 -25 542 -25 710 0 676 100
1248 433 1672 971 265 337 442 757 509 1210 25 168 25 542 0 710 -100 676
-433 1248 -971 1672 -336 264 -761 444 -1205 508 -110 16 -475 28 -565 19z
m570 -193 c72 -11 183 -34 248 -51 833 -218 1500 -894 1705 -1730 53 -215 66
-330 66 -580 0 -250 -13 -365 -66 -580 -208 -848 -890 -1530 -1738 -1738 -205
-51 -339 -66 -580 -66 -397 0 -707 71 -1055 244 -260 129 -421 245 -631 454
-209 210 -325 371 -454 631 -173 348 -244 658 -244 1055 0 397 71 707 244
1055 129 260 245 421 454 631 210 209 371 325 631 454 272 135 526 208 835
240 131 14 436 4 585 -19z"/>
<path d="M3337 3903 c-153 -153 -298 -304 -322 -336 -65 -86 -87 -151 -92
-282 l-5 -110 -83 -85 c-46 -47 -86 -95 -89 -106 -16 -52 47 -113 102 -99 26
6 177 146 215 200 19 26 23 48 27 160 4 97 10 140 24 170 12 26 121 142 322
342 287 285 304 304 304 338 0 50 -36 85 -87 85 -35 0 -50 -13 -316 -277z"/>
<path d="M1263 4036 c-34 -28 -85 -134 -108 -221 -75 -288 31 -613 306 -940
115 -137 779 -790 828 -815 92 -46 201 -36 291 26 l47 32 57 -57 56 -57 -16
-48 c-23 -65 -14 -149 21 -214 18 -34 135 -157 363 -384 315 -314 341 -337
397 -358 81 -30 197 -25 269 11 167 83 237 290 153 454 -15 31 -414 437 -1296
1320 -1175 1176 -1276 1275 -1307 1275 -20 0 -44 -9 -61 -24z m2513 -2648 c20
-38 18 -116 -5 -158 -36 -69 -150 -102 -219 -66 -15 8 -170 158 -344 333 -219
219 -319 327 -324 347 -4 18 0 56 11 98 25 99 14 131 -84 231 -42 43 -87 85
-101 92 -68 34 -134 25 -213 -29 -56 -39 -92 -44 -135 -22 -49 26 -793 785
-854 871 -157 223 -228 440 -200 618 6 40 16 87 22 102 11 29 12 28 1221
-1181 666 -665 1217 -1221 1225 -1236z"/>
<path d="M3558 3602 c-268 -268 -288 -290 -288 -323 0 -64 62 -104 116 -75 16
8 153 139 304 290 259 260 274 277 274 312 0 46 -39 84 -87 84 -28 0 -63 -31
-319 -288z"/>
<path d="M3849 3353 c-177 -177 -315 -307 -340 -320 -38 -21 -56 -23 -182 -23
l-140 0 -114 -112 c-99 -98 -113 -116 -113 -145 0 -45 38 -83 82 -83 29 0 46
12 117 84 l84 85 132 3 c129 3 132 4 206 41 66 33 106 69 382 340 294 290 307
305 307 341 0 51 -35 86 -87 86 -36 0 -50 -12 -334 -297z"/>
<path d="M1479 1877 c-191 -188 -358 -360 -371 -382 -103 -169 -31 -400 151
-483 45 -21 72 -26 136 -26 143 -1 153 6 568 422 342 343 357 360 357 396 0
46 -38 86 -83 86 -27 0 -75 -44 -391 -359 -390 -388 -395 -392 -482 -375 -69
13 -134 92 -134 164 0 69 27 101 370 445 308 309 340 343 340 373 0 45 -38 82
-82 82 -30 -1 -68 -35 -379 -343z"/>
</g>
</svg>
